<svg width="34" height="33" viewBox="0 0 34 33" fill="none" xmlns="http://www.w3.org/2000/svg">
<path d="M33.5875 9.82477C33.5689 8.48099 33.3075 7.15057 32.815 5.89303C32.3879 4.8323 31.7356 3.86896 30.8997 3.06458C30.0638 2.26019 29.0628 1.63244 27.9605 1.22143C26.6705 0.755437 25.3078 0.503465 23.9302 0.476246C22.1565 0.399953 21.5942 0.378662 17.0919 0.378662C12.5896 0.378662 12.0125 0.378662 10.2518 0.476246C8.8748 0.503665 7.51266 0.755634 6.22327 1.22143C5.12084 1.63215 4.11964 2.2598 3.28373 3.06422C2.44782 3.86865 1.7956 4.83213 1.3688 5.89303C0.883595 7.13347 0.622328 8.4446 0.596289 9.76976C0.51701 11.4784 0.493042 12.0195 0.493042 16.3522C0.493042 20.6849 0.493042 21.2385 0.596289 22.9347C0.623945 24.2618 0.883907 25.5712 1.3688 26.815C1.79631 27.8756 2.44902 28.8387 3.28521 29.6427C4.1214 30.4468 5.1227 31.0742 6.22511 31.4848C7.51097 31.9695 8.87335 32.2395 10.2536 32.2832C12.0291 32.3595 12.5914 32.3826 17.0937 32.3826C21.5961 32.3826 22.1731 32.3826 23.9339 32.2832C25.3114 32.2571 26.6743 32.0057 27.9642 31.5398C29.0662 31.1283 30.067 30.5004 30.9028 29.6961C31.7386 28.8918 32.3911 27.9287 32.8187 26.8682C33.3036 25.6262 33.5635 24.3168 33.5912 22.9879C33.6705 21.2811 33.6944 20.74 33.6944 16.4055C33.6907 12.0727 33.6907 11.5227 33.5875 9.82477ZM17.0808 24.5457C12.372 24.5457 8.55739 20.8748 8.55739 16.3434C8.55739 11.8119 12.372 8.141 17.0808 8.141C19.3414 8.141 21.5094 9.00518 23.1078 10.5434C24.7063 12.0817 25.6043 14.168 25.6043 16.3434C25.6043 18.5188 24.7063 20.6051 23.1078 22.1433C21.5094 23.6815 19.3414 24.5457 17.0808 24.5457ZM25.9435 9.75025C25.6824 9.75048 25.4239 9.70117 25.1826 9.60513C24.9414 9.5091 24.7222 9.36822 24.5376 9.19057C24.353 9.01292 24.2066 8.80198 24.1068 8.56982C24.007 8.33766 23.9558 8.08884 23.956 7.83761C23.956 7.58655 24.0074 7.33796 24.1072 7.10601C24.2071 6.87407 24.3534 6.66332 24.5379 6.48579C24.7223 6.30827 24.9413 6.16745 25.1824 6.07138C25.4234 5.9753 25.6817 5.92585 25.9426 5.92585C26.2035 5.92585 26.4618 5.9753 26.7028 6.07138C26.9438 6.16745 27.1628 6.30827 27.3473 6.48579C27.5318 6.66332 27.6781 6.87407 27.778 7.10601C27.8778 7.33796 27.9292 7.58655 27.9292 7.83761C27.9292 8.89506 27.0405 9.75025 25.9435 9.75025Z" fill="#3FA0BB"/>
</svg>
