<svg width="38" height="37" viewBox="0 0 38 37" fill="none" xmlns="http://www.w3.org/2000/svg">
<path d="M19.1771 0.635498C8.96087 0.635498 0.679199 8.61847 0.679199 18.4662C0.679199 28.314 8.96087 36.297 19.1771 36.297C29.3934 36.297 37.675 28.314 37.675 18.4662C37.675 8.61847 29.3934 0.635498 19.1771 0.635498ZM14.649 25.8567H10.9032V14.237H14.649V25.8567ZM12.7529 12.8106C11.5698 12.8106 10.8049 12.0026 10.8049 11.0033C10.8049 9.98364 11.593 9.19983 12.8011 9.19983C14.0093 9.19983 14.7492 9.98364 14.7723 11.0033C14.7723 12.0026 14.0093 12.8106 12.7529 12.8106ZM28.3297 25.8567H24.5839V19.4172C24.5839 17.9183 24.0405 16.9005 22.6859 16.9005C21.6512 16.9005 21.0365 17.5896 20.7649 18.2527C20.6647 18.4885 20.6396 18.8229 20.6396 19.1553V25.8549H16.8919V17.9425C16.8919 16.4919 16.8437 15.279 16.7936 14.2352H20.0481L20.2196 15.8492H20.2947C20.788 15.0914 21.9961 13.9733 24.0174 13.9733C26.4819 13.9733 28.3297 15.565 28.3297 18.9863V25.8567Z" fill="#3FA0BB"/>
</svg>
