<svg width="6" height="6" viewBox="0 0 6 6" fill="none" xmlns="http://www.w3.org/2000/svg">
<path d="M3.01561 4.49997C3.4142 4.49997 3.79648 4.34163 4.07833 4.05978C4.36018 3.77792 4.51852 3.39565 4.51852 2.99705C4.51852 2.59845 4.36018 2.21618 4.07833 1.93433C3.79648 1.65248 3.4142 1.49413 3.01561 1.49413C2.61701 1.49413 2.23473 1.65248 1.95288 1.93433C1.67103 2.21618 1.51269 2.59845 1.51269 2.99705C1.51269 3.39565 1.67103 3.77792 1.95288 4.05978C2.23473 4.34163 2.61701 4.49997 3.01561 4.49997ZM3.01561 5.50191C2.35127 5.50191 1.71415 5.23801 1.2444 4.76826C0.774647 4.2985 0.510742 3.66138 0.510742 2.99705C0.510742 2.33272 0.774647 1.6956 1.2444 1.22585C1.71415 0.756092 2.35127 0.492188 3.01561 0.492188C3.67994 0.492188 4.31706 0.756092 4.78681 1.22585C5.25657 1.6956 5.52047 2.33272 5.52047 2.99705C5.52047 3.66138 5.25657 4.2985 4.78681 4.76826C4.31706 5.23801 3.67994 5.50191 3.01561 5.50191Z" fill="black"/>
</svg>
