<svg width="12" height="15" viewBox="0 0 12 15" fill="none" xmlns="http://www.w3.org/2000/svg">
<path d="M10.5243 5.99709C10.5243 4.80129 10.0493 3.65447 9.20375 2.80892C8.3582 1.96336 7.21138 1.48833 6.01558 1.48833C4.81979 1.48833 3.67297 1.96336 2.82741 2.80892C1.98186 3.65447 1.50683 4.80129 1.50683 5.99709C1.50683 7.84668 2.9867 10.2574 6.01558 13.145C9.04446 10.2574 10.5243 7.84668 10.5243 5.99709ZM6.01558 14.5136C2.34145 11.1741 0.504883 8.33463 0.504883 5.99709C0.504883 4.53556 1.08547 3.13389 2.11893 2.10044C3.15239 1.06698 4.55405 0.486389 6.01558 0.486389C7.47711 0.486389 8.87878 1.06698 9.91224 2.10044C10.9457 3.13389 11.5263 4.53556 11.5263 5.99709C11.5263 8.33463 9.68972 11.1741 6.01558 14.5136Z" fill="black"/>
</svg>
