<svg width="34" height="33" viewBox="0 0 34 33" fill="none" xmlns="http://www.w3.org/2000/svg">
<path d="M16.0892 1.42754C16.3886 0.50623 17.692 0.506229 17.9913 1.42754L21.2274 11.3873C21.3613 11.7993 21.7453 12.0783 22.1785 12.0783H32.6508C33.6196 12.0783 34.0223 13.3179 33.2386 13.8873L24.7663 20.0428C24.4158 20.2974 24.2692 20.7488 24.4031 21.1608L27.6392 31.1206C27.9385 32.0419 26.8841 32.8081 26.1003 32.2387L17.628 26.0832C17.2776 25.8285 16.803 25.8285 16.4525 26.0832L7.98018 32.2387C7.19646 32.8081 6.14198 32.0419 6.44133 31.1206L9.67746 21.1608C9.81134 20.7488 9.66468 20.2974 9.31419 20.0428L0.841897 13.8873C0.0581834 13.3179 0.460957 12.0783 1.42968 12.0783H11.902C12.3352 12.0783 12.7192 11.7993 12.8531 11.3873L16.0892 1.42754Z" fill="#3282AD"/>
</svg>
